<svg width="490" height="484" version="1.1" xmlns="http://www.w3.org/2000/svg" desc="Created with imagetracer.js version 1.2.6" ><path fill="rgb(0,0,0)" stroke="rgb(0,0,0)" stroke-width="1" opacity="0" d="M 0 0 L 490 0 L 490 484 L 0 484 L 0 0 Z M 244 41 L 235 45 Q 226 51 223 63 Q 222 76 228 83 Q 233 91 245 93 Q 258 95 265 89 Q 274 83 276 71 Q 277 58 271 52 Q 264 39 244 41 Z M 236 96 L 235 97 L 219 98 L 203 101 L 177 109 Q 152 119 134 134 Q 116 148 106 169 L 101 184 L 100 203 L 88 213 L 70 235 L 62 252 L 60 261 L 60 269 L 59 270 Q 59 303 75 322 Q 87 338 108 346 L 110 352 L 112 365 L 118 386 L 124 415 Q 128 429 137 440 Q 145 449 158 454 L 179 459 L 319 459 L 320 458 L 329 458 L 339 455 L 354 447 Q 365 439 371 425 L 390 347 L 411 335 Q 433 318 439 285 L 439 266 L 436 252 Q 429 234 418 221 L 402 206 L 398 203 L 398 187 L 396 178 Q 390 162 380 150 Q 356 122 319 108 L 296 101 L 274 97 L 266 97 L 265 96 L 236 96 Z " /><path fill="rgb(194,217,228)" stroke="rgb(194,217,228)" stroke-width="1" opacity="0.9921568627450981" d="M 298.5 106 Q 300.6 109.9 306 109 L 306.5 111 L 309.5 110 L 309.5 111 L 307 111.5 Q 316 118.5 320.5 130 L 324 128.5 L 323.5 127 Q 324.8 129.3 326 126.5 Q 327.2 121.9 322 124 L 322 120 L 326 121 L 325 118.5 L 327 118 L 327.5 120 L 328.5 118 L 332.5 119 L 335.5 117 L 336.5 119 L 338 118.5 L 338.5 120 L 340.5 120 L 366 136 Q 364.9 138.7 367.5 138 L 381 151.5 L 391 167.5 L 395 178.5 L 393 183.5 L 394 185.5 L 393 185.5 L 392.5 184 L 392 190.5 L 394 191.5 Q 393.3 187.3 396 186.5 Q 393.8 185.2 395 180.5 L 396 180.5 L 398 195.5 L 397 199.5 L 397 201.5 L 404.5 209 L 419 222.5 L 427 233.5 L 425 234 Q 418.1 219.7 405.5 210 L 396.5 203 L 396 205 Q 393 203.8 394 207.5 L 388.5 214 Q 386.3 213.3 387 215.5 Q 383 222.4 375 224 L 373.5 227 L 369.5 228 L 368.5 227 L 365 230.5 Q 365.8 233.1 362.5 232 L 349.5 238 L 331.5 243 L 320.5 245 L 301.5 246 L 301.5 245 L 308 244.5 L 302 243 Q 301.3 239.9 304 240.5 L 304 234.5 Q 308 232.5 304 230.5 L 305 224.5 L 304.5 223 L 306.5 224 Q 310.8 222.3 308 220.5 L 309 216.5 L 307 215.5 L 308.5 215 L 312 217.5 L 310.5 210 L 294.5 223 L 289.5 225 L 288.5 224 L 286 225.5 L 284 222.5 L 284 208 L 286 208 Q 284.5 204.3 287.5 205 Q 288.8 207.3 290 204.5 L 289.5 192 L 288 193.5 L 288 202 Q 285.3 203.1 286 200.5 L 286 198.5 Q 284.7 193.7 287 192.5 Q 284.5 191 288 189.5 L 288 184 L 296 184 L 296 176 Q 292.3 177.2 294 172 L 290 172 L 290 168 L 294 168 Q 292.3 173.2 296 172 L 295.5 161 L 293 167 Q 290.3 168.1 291 165.5 L 290 164.5 L 290 143 L 292 143 L 292 140 L 294 140 L 296 136 L 290.5 137 L 290.5 136 L 295.5 134 L 296 136 L 298 136 Q 296.9 133.3 299.5 134 L 299.5 133 L 294 131 Q 295.5 127.3 292.5 128 L 292.5 127 L 296 126 Q 297 123 294 124 L 294 121 Q 296.7 119.9 296 122.5 L 298 126 L 301 124.5 L 302 120 L 304 120 L 304 125 L 306 125 L 306 122 Q 308.7 123.1 308 120.5 L 304 118 L 304.5 115 L 307 119 L 311.5 120 L 311.5 119 Q 309.3 119.8 310 117.5 L 308.5 114 L 306.5 114 L 305 114 Q 306.5 110.2 303.5 111 L 300 112.5 L 302 113.5 Q 300.6 116.3 296 115 L 297 118.5 L 295.5 118 L 294 118 L 294 114 L 299 113 Q 300.3 108.9 297 110 L 296.5 112 L 292 110.5 L 296 110 Q 294.8 107 298.5 108 L 301.5 110 L 299.5 107 L 298.5 106 Z M 306 136 L 306 138 L 308 137 L 306 136 Z M 297 139 L 296 142 L 297 142 L 297 139 Z M 307 142 Q 305 145 308 144 L 307 142 Z M 378 150 L 376 154 Q 375 156 378 155 L 379 153 L 378 150 Z M 379 155 L 378 159 L 378 160 Q 380 161 379 159 L 381 159 Q 383 160 382 157 L 379 155 Z M 382 162 L 382 164 L 384 165 Q 385 161 382 162 Z M 386 165 L 387 172 L 388 170 Q 388 166 386 165 Z M 298 168 L 296 176 L 298 176 L 298 168 Z M 385 168 L 384 174 L 385 174 L 385 168 Z M 381 169 L 380 172 L 381 172 L 381 169 Z M 390 169 L 389 171 L 391 172 L 390 169 Z M 389 173 L 385 174 Q 384 177 387 176 L 389 176 Q 392 175 389 173 Z M 382 174 L 381 184 L 380 185 Q 379 189 382 188 L 382 174 Z M 393 177 Q 391 180 394 179 L 393 177 Z M 384 184 L 384 186 L 386 185 L 384 184 Z M 384 188 L 384 190 L 386 192 Q 383 191 384 195 L 387 196 L 388 194 L 387 192 L 387 190 Q 388 186 384 188 Z M 296 192 L 297 195 L 298 193 L 296 192 Z M 395 193 L 393 197 L 395 198 L 395 193 Z M 383 197 Q 380 201 384 200 L 383 197 Z M 389 201 L 386 206 Q 385 209 389 207 L 389 201 Z M 291 208 L 289 210 Q 288 214 292 212 L 292 208 L 291 208 Z M 296 209 L 295 212 L 296 212 L 296 209 Z M 296 214 L 294 216 L 296 216 L 296 214 Z M 291 221 L 291 222 L 293 222 L 291 221 Z " /><path fill="rgb(194,217,228)" stroke="rgb(194,217,228)" stroke-width="1" opacity="0.9921568627450981" d="M 319.5 111 L 327 115.5 L 323 116 L 322.5 119 Q 321 115.5 319.5 118 Q 317.3 117.3 318 119.5 L 317 119.5 L 318 112.5 L 319.5 111 Z " /><path fill="rgb(194,217,228)" stroke="rgb(194,217,228)" stroke-width="1" opacity="0.9921568627450981" d="M 326.5 113 L 330 114.5 L 328 115.5 Q 328.8 113.3 326.5 114 L 326.5 113 Z " /><path fill="rgb(194,217,228)" stroke="rgb(194,217,228)" stroke-width="1" opacity="0.9921568627450981" d="M 314 114 Q 317 112.8 316 116.5 L 314 115.5 L 314 114 Z " /><path fill="rgb(194,217,228)" stroke="rgb(194,217,228)" stroke-width="1" opacity="0.9921568627450981" d="M 288 139 Q 291 138 290 141 Q 287 142 288 139 Z " /><path fill="rgb(194,217,228)" stroke="rgb(194,217,228)" stroke-width="1" opacity="0.9921568627450981" d="M 284.5 185 L 287 186.5 L 283.5 187 L 284.5 185 Z " /><path fill="rgb(194,217,228)" stroke="rgb(194,217,228)" stroke-width="1" opacity="0.9921568627450981" d="M 428.5 237 L 432 243.5 L 431 243.5 L 428.5 237 Z " /><path fill="rgb(194,217,228)" stroke="rgb(194,217,228)" stroke-width="1" opacity="0.9921568627450981" d="M 432.5 245 L 435 251.5 L 434 251.5 L 432.5 245 Z " /><path fill="rgb(194,217,228)" stroke="rgb(194,217,228)" stroke-width="1" opacity="0.9921568627450981" d="M 435.5 253 L 436 255.5 L 435 255.5 L 435.5 253 Z " /><path fill="rgb(194,217,228)" stroke="rgb(194,217,228)" stroke-width="1" opacity="0.9921568627450981" d="M 436.5 257 L 437 260.5 L 436 260.5 L 436.5 257 Z " /><path fill="rgb(194,217,228)" stroke="rgb(194,217,228)" stroke-width="1" opacity="0.9921568627450981" d="M 437.5 262 L 438 266.5 L 437 266.5 L 437.5 262 Z " /><path fill="rgb(194,217,228)" stroke="rgb(194,217,228)" stroke-width="1" opacity="0.9921568627450981" d="M 332 264 Q 335 263 334 266 Q 331 267 332 264 Z " /><path fill="rgb(194,217,228)" stroke="rgb(194,217,228)" stroke-width="1" opacity="0.9921568627450981" d="M 336 264 L 338 264.5 L 336.5 267 L 336 264 Z " /><path fill="rgb(194,217,228)" stroke="rgb(194,217,228)" stroke-width="1" opacity="0.9921568627450981" d="M 437.5 268 L 439 269.5 L 439 277.5 L 437 276.5 L 438 269.5 L 437.5 268 Z " /><path fill="rgb(194,217,228)" stroke="rgb(194,217,228)" stroke-width="1" opacity="0.9921568627450981" d="M 331.5 270 Q 336.1 268.8 334 274 L 329 277.5 L 329 279 L 326 279 Q 327.5 282.7 324.5 282 L 322 280.5 L 326 278.5 Q 325.3 276.3 327.5 277 Q 330.3 275.8 328 274.5 L 330 271.5 L 331.5 270 Z " /><path fill="rgb(194,217,228)" stroke="rgb(194,217,228)" stroke-width="1" opacity="0.9921568627450981" d="M 437.5 281 L 438 285.5 L 436.5 288 L 436 286.5 L 437.5 281 Z " /><path fill="rgb(194,217,228)" stroke="rgb(194,217,228)" stroke-width="1" opacity="0.9921568627450981" d="M 320 282 Q 323.7 280.5 323 283.5 L 320 285.5 L 320 282 Z " /><path fill="rgb(194,217,228)" stroke="rgb(194,217,228)" stroke-width="1" opacity="0.9921568627450981" d="M 316.5 288 L 318 288.5 L 315.5 290 L 316.5 288 Z " /><path fill="rgb(194,217,228)" stroke="rgb(194,217,228)" stroke-width="1" opacity="0.9921568627450981" d="M 436.5 289 L 437 291.5 L 436 291.5 L 436.5 289 Z " /><path fill="rgb(194,217,228)" stroke="rgb(194,217,228)" stroke-width="1" opacity="0.9921568627450981" d="M 435.5 293 L 436 295.5 L 435 295.5 L 435.5 293 Z " /><path fill="rgb(194,217,228)" stroke="rgb(194,217,228)" stroke-width="1" opacity="0.9921568627450981" d="M 433.5 300 L 434 301.5 L 432.5 304 L 432 302.5 L 433.5 300 Z " /><path fill="rgb(194,217,228)" stroke="rgb(194,217,228)" stroke-width="1" opacity="0.9921568627450981" d="M 431.5 305 L 432 306.5 Q 423.1 324.1 408.5 336 L 416 327.5 L 417.5 324 Q 418.8 326.3 420 323.5 L 419 321.5 L 423 318.5 L 425 315.5 L 431.5 305 Z " /><path fill="rgb(194,217,228)" stroke="rgb(194,217,228)" stroke-width="1" opacity="0.9921568627450981" d="M 406.5 336 L 404.5 339 L 395.5 344 L 395 342 L 399.5 341 L 406.5 336 Z " /><path fill="rgb(194,217,228)" stroke="rgb(194,217,228)" stroke-width="1" opacity="0.9921568627450981" d="M 386.5 343 L 386 344.5 Q 386.8 346.8 384.5 346 L 386.5 343 Z " /><path fill="rgb(194,217,228)" stroke="rgb(194,217,228)" stroke-width="1" opacity="0.9921568627450981" d="M 379.5 344 L 382 344.5 L 378.5 346 L 379.5 344 Z " /><path fill="rgb(194,217,228)" stroke="rgb(194,217,228)" stroke-width="1" opacity="0.9921568627450981" d="M 392.5 344 L 394 344.5 L 389.5 347 L 390.5 345 L 392.5 344 Z " /><path fill="rgb(194,217,228)" stroke="rgb(194,217,228)" stroke-width="1" opacity="0.9921568627450981" d="M 337.5 352 L 341.5 353 L 344.5 352 L 346.5 352 L 350 352.5 L 348.5 354 L 332.5 355 L 333.5 353 L 337.5 352 Z " /><path fill="rgb(194,217,228)" stroke="rgb(194,217,228)" stroke-width="1" opacity="0.9921568627450981" d="M 352 352 L 361 353.5 L 352 354 L 352 352 Z " /><path fill="rgb(194,217,228)" stroke="rgb(194,217,228)" stroke-width="1" opacity="0.9921568627450981" d="M 323.5 354 L 328 354.5 L 323.5 355 L 323.5 354 Z " /><path fill="rgb(194,217,228)" stroke="rgb(194,217,228)" stroke-width="1" opacity="0.9921568627450981" d="M 337.5 355 L 348 355.5 L 337.5 356 L 337.5 355 Z " /><path fill="rgb(236,215,221)" stroke="rgb(236,215,221)" stroke-width="1" opacity="0.9647058823529412" d="M 243.5 41 L 256 41.5 Q 237.3 40.3 230 50.5 L 224.5 61 L 224 58.5 Q 227.3 49.8 234.5 45 L 243.5 41 Z " /><path fill="rgb(236,215,221)" stroke="rgb(236,215,221)" stroke-width="1" opacity="0.9647058823529412" d="M 264.5 45 L 270.5 52 L 264.5 45 Z " /><path fill="rgb(236,215,221)" stroke="rgb(236,215,221)" stroke-width="1" opacity="0.9647058823529412" d="M 238.5 51 Q 242.3 50.3 243 52.5 Q 244 57 241.5 58 L 238.5 59 Q 235.3 58.3 236 53.5 L 238.5 51 Z " /><path fill="rgb(236,215,221)" stroke="rgb(236,215,221)" stroke-width="1" opacity="0.9647058823529412" d="M 273.5 56 L 275 60.5 L 274 60.5 L 273.5 56 Z " /><path fill="rgb(236,215,221)" stroke="rgb(236,215,221)" stroke-width="1" opacity="0.9647058823529412" d="M 223.5 62 L 224 70.5 L 223 70.5 L 223.5 62 Z " /><path fill="rgb(236,215,221)" stroke="rgb(236,215,221)" stroke-width="1" opacity="0.9647058823529412" d="M 275.5 62 L 276 70.5 L 275 70.5 L 275.5 62 Z " /><path fill="rgb(236,215,221)" stroke="rgb(236,215,221)" stroke-width="1" opacity="0.9647058823529412" d="M 224.5 72 L 225 74.5 L 224 74.5 L 224.5 72 Z " /><path fill="rgb(236,215,221)" stroke="rgb(236,215,221)" stroke-width="1" opacity="0.9647058823529412" d="M 225.5 76 L 227 78.5 L 225 77.5 L 225.5 76 Z " /><path fill="rgb(236,215,221)" stroke="rgb(236,215,221)" stroke-width="1" opacity="0.9647058823529412" d="M 272.5 79 L 271.5 81 L 272.5 79 Z " /><path fill="rgb(236,215,221)" stroke="rgb(236,215,221)" stroke-width="1" opacity="0.9647058823529412" d="M 228.5 82 L 234.5 89 L 228.5 82 Z " /><path fill="rgb(236,215,221)" stroke="rgb(236,215,221)" stroke-width="1" opacity="0.9647058823529412" d="M 270.5 82 L 269.5 84 L 270.5 82 Z " /><path fill="rgb(236,215,221)" stroke="rgb(236,215,221)" stroke-width="1" opacity="0.9647058823529412" d="M 266.5 86 L 264.5 89 L 266.5 86 Z " /><path fill="rgb(236,215,221)" stroke="rgb(236,215,221)" stroke-width="1" opacity="0.9647058823529412" d="M 262.5 89 L 261.5 91 L 260 90.5 L 262.5 89 Z " /><path fill="rgb(236,215,221)" stroke="rgb(236,215,221)" stroke-width="1" opacity="0.9647058823529412" d="M 244.5 92 L 249 92.5 L 244.5 93 L 244.5 92 Z " /><path fill="rgb(236,215,221)" stroke="rgb(236,215,221)" stroke-width="1" opacity="0.9647058823529412" d="M 250.5 92 L 256 92.5 L 250.5 93 L 250.5 92 Z " /><path fill="rgb(236,215,221)" stroke="rgb(236,215,221)" stroke-width="1" opacity="0.9647058823529412" d="M 235.5 96 L 264.5 96 L 265.5 97 L 273.5 97 L 295.5 101 L 318.5 108 Q 356.1 121.9 380 149.5 L 367.5 138 L 364.5 136 Q 338.7 112.8 298.5 104 L 298.5 107 L 300.5 106 Q 305 108 301.5 110 L 296 108 Q 297.3 111.3 292.5 110 L 292.5 111 L 296.5 112 L 297 110 Q 300.3 108.9 299 113 L 294 114 L 294 118 L 295.5 118 L 297 118.5 L 296 115 Q 300.6 116.3 302 113.5 L 300 112.5 L 305 111 Q 303.5 114.7 306.5 114 L 310 115.5 L 310 117.5 Q 309.3 119.8 311.5 119 L 311.5 120 L 307.5 119 L 308 120.5 Q 308.7 123.1 306 122 L 306 125 L 304 125 L 304 120 L 302 120 L 299.5 126 Q 297.3 126.8 298 124.5 L 296 121 Q 292.7 119.9 294 124 Q 297 123 296 126 L 292 127.5 L 294 128 Q 292.5 131.8 295.5 131 L 300 133.5 L 298 134 L 298 136 L 296 136 L 296 138 L 292 140 L 292 143 L 290 143.5 L 290 164.5 L 291 167 Q 293.7 168.1 293 165.5 L 295.5 161 L 296 172 Q 292.3 170.8 294 176 L 297 174.5 L 297.5 168 L 298 176 L 296 176.5 L 296 184 L 288 184 L 288 189.5 L 286 193.5 Q 284.7 198.2 287 199.5 L 286 202 L 288 201.5 L 288 193.5 L 290 192.5 L 290 204.5 L 288.5 206 L 286 205 Q 287 209.3 284 208.5 L 284 222.5 L 286.5 226 L 288.5 224 L 291 224.5 L 279.5 232 L 262.5 238 L 260.5 240 L 249.5 243 L 226.5 247 L 200.5 247 L 199.5 246 L 182.5 245 L 162.5 241 L 139 232.5 L 142 231.5 L 135 229.5 L 135.5 228 L 130.5 226 Q 128.8 229.8 127 226.5 L 127 224.5 L 128 218 Q 122.5 216.9 120 219.5 L 123 221.5 L 120.5 223 Q 116.2 221.2 119 219.5 Q 119.8 217.3 117.5 218 L 115.5 219 L 114.5 217 Q 116.8 217.8 116 215.5 L 118.5 214 L 120.5 214 Q 122.8 214.8 122 212.5 L 119.5 211 L 117 212 L 117 210 L 120 210 L 120 208 Q 122.7 209.1 122 206.5 L 120 205.5 L 119.5 207 L 118.5 205 Q 121.5 205.7 120 202 L 115 201 Q 116.1 203.7 113.5 203 L 112 203.5 Q 112.8 201.3 110.5 202 L 108 200.5 L 112 200 L 111.5 198 L 109.5 198 L 108 197.5 L 108 192 Q 112.5 193.8 111 188.5 L 112 185.5 L 112 183.5 L 111 177.5 L 113 168 Q 109.3 166.5 110 169.5 L 111 173.5 L 110 173.5 L 108.5 171 L 107 176 Q 110.7 174.5 110 177.5 L 110 179.5 Q 110.8 181.8 108.5 181 L 106.5 182 L 104.5 181 L 103 183.5 L 103 185.5 L 102 200.5 L 104 200.5 L 103 203 Q 90.7 209.3 82 220.5 Q 71.3 231.8 65 247.5 L 62 256.5 L 60 271.5 L 61 272.5 L 61 287.5 L 66 304.5 Q 74.1 322.4 88.5 334 L 91.5 336 L 109 346.5 L 107.5 346 Q 86.9 338.1 75 321.5 Q 59.2 303.3 59 269.5 L 60 268.5 L 60 260.5 L 62 251.5 L 70 234.5 L 87.5 213 L 100 202.5 L 101 183.5 L 106 168.5 Q 116.3 147.8 133.5 134 Q 152.2 118.7 176.5 109 L 202.5 101 L 218.5 98 L 234.5 97 L 235.5 96 Z M 305 115 Q 302 119 306 118 L 307 119 L 305 115 Z M 296 134 L 291 136 L 291 137 L 296 136 L 296 134 Z M 288 139 Q 287 142 290 141 Q 291 138 288 139 Z M 110 165 Q 109 168 112 167 Q 113 164 110 165 Z M 290 168 Q 288 174 294 172 Q 296 166 290 168 Z M 105 177 L 105 179 L 108 178 L 105 177 Z M 285 185 L 284 187 L 287 187 L 285 185 Z M 112 190 Q 111 193 115 192 Q 116 189 112 190 Z M 112 196 L 112 198 L 116 200 L 118 200 L 112 196 Z M 128 212 L 126 214 L 128 214 L 128 212 Z M 133 222 L 131 224 L 136 224 Q 137 221 133 222 Z " /><path fill="rgb(236,215,221)" stroke="rgb(236,215,221)" stroke-width="1" opacity="0.9647058823529412" d="M 306 136 L 308 136.5 L 306 137.5 L 306 136 Z " /><path fill="rgb(236,215,221)" stroke="rgb(236,215,221)" stroke-width="1" opacity="0.9647058823529412" d="M 296.5 139 L 297 141.5 L 296 141.5 L 296.5 139 Z " /><path fill="rgb(236,215,221)" stroke="rgb(236,215,221)" stroke-width="1" opacity="0.9647058823529412" d="M 306.5 142 L 307.5 144 Q 304.7 144.7 306.5 142 Z " /><path fill="rgb(236,215,221)" stroke="rgb(236,215,221)" stroke-width="1" opacity="0.9647058823529412" d="M 381.5 152 L 382.5 154 L 381.5 152 Z " /><path fill="rgb(236,215,221)" stroke="rgb(236,215,221)" stroke-width="1" opacity="0.9647058823529412" d="M 383.5 155 L 387 159.5 L 384 157.5 L 383.5 155 Z " /><path fill="rgb(236,215,221)" stroke="rgb(236,215,221)" stroke-width="1" opacity="0.9647058823529412" d="M 387.5 161 L 391 166.5 L 389 165.5 L 387.5 161 Z " /><path fill="rgb(236,215,221)" stroke="rgb(236,215,221)" stroke-width="1" opacity="0.9647058823529412" d="M 394.5 175 L 396 179.5 L 395 179.5 L 394.5 175 Z " /><path fill="rgb(236,215,221)" stroke="rgb(236,215,221)" stroke-width="1" opacity="0.9647058823529412" d="M 396.5 181 L 397 183.5 L 396 183.5 L 396.5 181 Z " /><path fill="rgb(236,215,221)" stroke="rgb(236,215,221)" stroke-width="1" opacity="0.9647058823529412" d="M 397.5 186 L 398 192.5 L 397 192.5 L 397.5 186 Z " /><path fill="rgb(236,215,221)" stroke="rgb(236,215,221)" stroke-width="1" opacity="0.9647058823529412" d="M 108.5 189 L 107.5 191 L 108.5 189 Z " /><path fill="rgb(236,215,221)" stroke="rgb(236,215,221)" stroke-width="1" opacity="0.9647058823529412" d="M 296 192 L 298 192.5 L 296.5 195 L 296 192 Z " /><path fill="rgb(236,215,221)" stroke="rgb(236,215,221)" stroke-width="1" opacity="0.9647058823529412" d="M 397.5 196 L 398 199.5 L 397 199.5 L 397.5 196 Z " /><path fill="rgb(236,215,221)" stroke="rgb(236,215,221)" stroke-width="1" opacity="0.9647058823529412" d="M 103.5 205 L 107.5 207 L 109.5 207 Q 111.8 206.3 111 208.5 L 112 208.5 Q 111.2 205.9 114.5 207 L 114.5 208 Q 112.3 207.3 113 209.5 Q 110.5 211 114 212.5 Q 115.1 215.8 112.5 215 L 110 213.5 L 111 211 Q 108.3 209.9 109 212.5 L 106 210.5 Q 107.1 207.2 104.5 208 L 103.5 205 Z " /><path fill="rgb(236,215,221)" stroke="rgb(236,215,221)" stroke-width="1" opacity="0.9647058823529412" d="M 402.5 206 L 404.5 209 L 402.5 206 Z " /><path fill="rgb(236,215,221)" stroke="rgb(236,215,221)" stroke-width="1" opacity="0.9647058823529412" d="M 290.5 208 L 292 208 L 292 212 Q 287.9 213.7 289 209.5 L 290.5 208 Z " /><path fill="rgb(236,215,221)" stroke="rgb(236,215,221)" stroke-width="1" opacity="0.9647058823529412" d="M 295.5 209 L 296 211.5 L 295 211.5 L 295.5 209 Z " /><path fill="rgb(236,215,221)" stroke="rgb(236,215,221)" stroke-width="1" opacity="0.9647058823529412" d="M 409.5 212 L 417.5 221 L 409.5 212 Z " /><path fill="rgb(236,215,221)" stroke="rgb(236,215,221)" stroke-width="1" opacity="0.9647058823529412" d="M 295.5 214 L 296 216 L 294 215.5 L 295.5 214 Z " /><path fill="rgb(236,215,221)" stroke="rgb(236,215,221)" stroke-width="1" opacity="0.9647058823529412" d="M 290.5 221 L 293 221.5 L 290.5 222 L 290.5 221 Z " /><path fill="rgb(236,215,221)" stroke="rgb(236,215,221)" stroke-width="1" opacity="0.9647058823529412" d="M 419.5 223 L 421.5 226 L 419.5 223 Z " /><path fill="rgb(236,215,221)" stroke="rgb(236,215,221)" stroke-width="1" opacity="0.9647058823529412" d="M 437.5 259 L 438 261.5 L 437 261.5 L 437.5 259 Z " /><path fill="rgb(236,215,221)" stroke="rgb(236,215,221)" stroke-width="1" opacity="0.9647058823529412" d="M 438.5 265 L 439 268.5 L 438 268.5 L 438.5 265 Z " /><path fill="rgb(236,215,221)" stroke="rgb(236,215,221)" stroke-width="1" opacity="0.9647058823529412" d="M 438.5 278 L 439 284.5 L 438 284.5 L 438.5 278 Z " /><path fill="rgb(236,215,221)" stroke="rgb(236,215,221)" stroke-width="1" opacity="0.9647058823529412" d="M 437.5 286 L 438 289.5 L 437 289.5 L 437.5 286 Z " /><path fill="rgb(236,215,221)" stroke="rgb(236,215,221)" stroke-width="1" opacity="0.9647058823529412" d="M 425.5 317 L 424.5 319 L 425.5 317 Z " /><path fill="rgb(236,215,221)" stroke="rgb(236,215,221)" stroke-width="1" opacity="0.9647058823529412" d="M 423.5 320 L 421.5 323 L 423.5 320 Z " /><path fill="rgb(236,215,221)" stroke="rgb(236,215,221)" stroke-width="1" opacity="0.9647058823529412" d="M 420.5 324 L 410.5 335 L 420.5 324 Z " /><path fill="rgb(236,215,221)" stroke="rgb(236,215,221)" stroke-width="1" opacity="0.9647058823529412" d="M 407.5 336 L 406.5 338 L 407.5 336 Z " /><path fill="rgb(236,215,221)" stroke="rgb(236,215,221)" stroke-width="1" opacity="0.9647058823529412" d="M 392.5 345 L 391.5 347 Q 389.3 346.3 390 348.5 L 389 348.5 L 390.5 346 L 392.5 345 Z " /><path fill="rgb(236,215,221)" stroke="rgb(236,215,221)" stroke-width="1" opacity="0.9647058823529412" d="M 109.5 348 L 110 350.5 L 109 350.5 L 109.5 348 Z " /><path fill="rgb(236,215,221)" stroke="rgb(236,215,221)" stroke-width="1" opacity="0.9647058823529412" d="M 388.5 351 L 389 353.5 L 388 353.5 L 388.5 351 Z " /><path fill="rgb(236,215,221)" stroke="rgb(236,215,221)" stroke-width="1" opacity="0.9647058823529412" d="M 110.5 352 L 111 355.5 L 110 355.5 L 110.5 352 Z " /><path fill="rgb(236,215,221)" stroke="rgb(236,215,221)" stroke-width="1" opacity="0.9647058823529412" d="M 387.5 355 L 388 357.5 L 387 357.5 L 387.5 355 Z " /><path fill="rgb(236,215,221)" stroke="rgb(236,215,221)" stroke-width="1" opacity="0.9647058823529412" d="M 111.5 357 L 112 359.5 L 111 359.5 L 111.5 357 Z " /><path fill="rgb(236,215,221)" stroke="rgb(236,215,221)" stroke-width="1" opacity="0.9647058823529412" d="M 386.5 359 L 387 361.5 L 386 361.5 L 386.5 359 Z " /><path fill="rgb(236,215,221)" stroke="rgb(236,215,221)" stroke-width="1" opacity="0.9647058823529412" d="M 112.5 361 L 128 423.5 Q 134.4 437.1 145.5 446 L 159 453.5 L 157.5 454 Q 145.2 448.8 137 439.5 Q 128.1 429.4 124 414.5 L 118 385.5 L 112 364.5 L 112.5 361 Z " /><path fill="rgb(236,215,221)" stroke="rgb(236,215,221)" stroke-width="1" opacity="0.9647058823529412" d="M 385.5 364 L 386 366.5 L 385 366.5 L 385.5 364 Z " /><path fill="rgb(236,215,221)" stroke="rgb(236,215,221)" stroke-width="1" opacity="0.9647058823529412" d="M 384.5 368 L 385 370.5 L 384 370.5 L 384.5 368 Z " /><path fill="rgb(236,215,221)" stroke="rgb(236,215,221)" stroke-width="1" opacity="0.9647058823529412" d="M 383.5 372 L 384 374.5 L 383 374.5 L 383.5 372 Z " /><path fill="rgb(236,215,221)" stroke="rgb(236,215,221)" stroke-width="1" opacity="0.9647058823529412" d="M 382.5 376 L 383 378.5 L 382 378.5 L 382.5 376 Z " /><path fill="rgb(236,215,221)" stroke="rgb(236,215,221)" stroke-width="1" opacity="0.9647058823529412" d="M 376.5 401 L 377 403.5 L 376 403.5 L 376.5 401 Z " /><path fill="rgb(236,215,221)" stroke="rgb(236,215,221)" stroke-width="1" opacity="0.9647058823529412" d="M 375.5 405 L 376 407.5 L 375 407.5 L 375.5 405 Z " /><path fill="rgb(236,215,221)" stroke="rgb(236,215,221)" stroke-width="1" opacity="0.9647058823529412" d="M 374.5 409 L 375 411.5 L 374 411.5 L 374.5 409 Z " /><path fill="rgb(236,215,221)" stroke="rgb(236,215,221)" stroke-width="1" opacity="0.9647058823529412" d="M 366.5 432 L 365.5 434 L 366.5 432 Z " /><path fill="rgb(236,215,221)" stroke="rgb(236,215,221)" stroke-width="1" opacity="0.9647058823529412" d="M 364.5 435 L 360.5 440 L 364.5 435 Z " /><path fill="rgb(236,215,221)" stroke="rgb(236,215,221)" stroke-width="1" opacity="0.9647058823529412" d="M 356.5 443 L 353.5 447 L 356.5 443 Z " /><path fill="rgb(236,215,221)" stroke="rgb(236,215,221)" stroke-width="1" opacity="0.9647058823529412" d="M 351.5 447 L 350.5 449 L 351.5 447 Z " /><path fill="rgb(236,215,221)" stroke="rgb(236,215,221)" stroke-width="1" opacity="0.9647058823529412" d="M 348.5 449 L 347.5 451 L 348.5 449 Z " /><path fill="rgb(236,215,221)" stroke="rgb(236,215,221)" stroke-width="1" opacity="0.9647058823529412" d="M 160.5 454 L 170 456.5 L 166.5 457 L 160.5 455 L 160.5 454 Z " /><path fill="rgb(236,215,221)" stroke="rgb(236,215,221)" stroke-width="1" opacity="0.9647058823529412" d="M 330.5 456 L 333 456.5 L 330.5 457 L 330.5 456 Z " /><path fill="rgb(236,215,221)" stroke="rgb(236,215,221)" stroke-width="1" opacity="0.9647058823529412" d="M 171.5 457 L 176 457.5 L 171.5 458 L 171.5 457 Z " /><path fill="rgb(236,215,221)" stroke="rgb(236,215,221)" stroke-width="1" opacity="0.9647058823529412" d="M 325.5 457 L 329 457.5 L 325.5 458 L 325.5 457 Z " /><path fill="rgb(236,215,221)" stroke="rgb(236,215,221)" stroke-width="1" opacity="0.9647058823529412" d="M 178.5 458 L 319 458.5 L 178.5 459 L 178.5 458 Z " /><path fill="rgb(203,192,207)" stroke="rgb(203,192,207)" stroke-width="1" opacity="0.996078431372549" d="M 296.5 103 L 301.5 104 L 303.5 106 L 305.5 106 L 311.5 107 L 328 114 L 328.5 116 L 331.5 115 L 335 117.5 L 329.5 119 L 328 118.5 L 327.5 120 L 327 118 L 325 118.5 L 326 121 L 322 120 L 322 124 Q 327.2 121.9 326 126.5 Q 325.5 130.5 320.5 130 L 314 118.5 L 306 109 L 303.5 109 L 296.5 104 L 296.5 103 Z M 308 110 L 308 111 L 310 111 L 308 110 Z M 319 112 L 318 118 L 320 118 L 321 117 L 323 119 L 322 116 L 323 114 L 323 116 L 327 116 L 322 113 L 319 112 Z M 314 114 L 314 116 L 316 117 Q 317 113 314 114 Z " /><path fill="rgb(203,192,207)" stroke="rgb(203,192,207)" stroke-width="1" opacity="0.996078431372549" d="M 311.5 208 L 312 209.5 L 311 212.5 L 312 217.5 L 309.5 216 L 308 217.5 L 309 221.5 L 305 224 L 304 230.5 Q 308 232.5 304 234.5 Q 302.5 240 305 241.5 L 303.5 241 Q 300.9 240.3 302 243 L 308 244.5 L 301 245.5 L 308.5 246 L 309.5 245 L 326.5 244 L 348.5 239 L 352 240.5 L 348 241 Q 346.3 245.5 351.5 244 L 351.5 245 L 345.5 246 L 344 247.5 L 345 250.5 L 343.5 250 L 342 250 L 342 254 Q 339 253 340 256 Q 345.2 253.9 344 258.5 L 342.5 258 L 338.5 259 L 336.5 258 L 337.5 260 Q 341.3 258.8 340 262.5 L 339.5 265 L 336 264 L 336.5 271 L 341 267.5 L 339 271 L 336 272.5 L 330 281 L 324 285.5 L 326 286.5 L 324.5 289 L 322.5 289 Q 319.9 288.2 321 291.5 L 324 290.5 L 324.5 292 L 326 289 Q 329.3 287.9 328 292 Q 324.7 290.7 326 295.5 L 328 295.5 L 328 301.5 Q 324.5 300.5 326 307.5 L 325 312 L 322 312 L 322 318.5 L 316 322.5 Q 313.2 324.2 314 329.5 L 312 331.5 L 312 336 L 310 336.5 L 310 344.5 L 312 344.5 L 312 351 Q 315 350 314 353 L 316.5 353 L 323 354.5 L 317.5 355 L 296.5 351 L 279.5 346 L 270.5 341 L 257.5 337 L 248.5 331 L 245 331 Q 246.1 328.3 243.5 329 Q 240.8 327.8 243 326.5 L 241.5 324 L 236 324 L 236 320 L 234.5 320 L 232 316 L 230 316 L 228 312 L 222.5 312 L 222.5 311 Q 224.8 311.8 224 309.5 L 222.5 310 Q 218.1 311.5 219 308.5 L 214 298 L 210 297.5 L 210.5 296 L 208 296 L 208 291 L 211 289.5 Q 210.2 286.5 214 288 L 214 285 L 216 285 L 216 280.5 L 217 280.5 L 218.5 283 L 222 282 L 222 276.5 L 223.5 276 L 228 277 L 228 274 L 230 274 Q 228.9 271.3 231.5 272 L 231.5 271 L 229 270.5 Q 231.5 266.8 238 268 L 239.5 265 L 244 264 L 244 262 L 248 260 L 248 256 Q 251 257 250 254 Q 247.3 255.1 248 252.5 L 244.5 250 L 228.5 250 L 221.5 248 L 206 247.5 L 235.5 246 L 260.5 240 L 262.5 238 L 279.5 232 L 294.5 223 L 311 209.5 L 311.5 208 Z M 332 264 Q 331 267 334 266 Q 335 263 332 264 Z M 332 270 L 330 273 L 332 273 Q 331 275 330 273 Q 327 272 328 275 Q 330 276 328 277 Q 325 276 326 279 Q 330 280 329 278 L 334 274 Q 336 269 332 270 Z M 326 279 L 322 281 L 326 282 L 326 279 Z M 320 282 L 320 286 L 323 284 Q 324 280 320 282 Z M 317 288 L 316 290 L 318 289 L 317 288 Z M 320 293 L 318 295 Q 317 297 320 296 L 320 293 Z M 319 315 L 318 316 Q 315 315 316 319 L 320 320 L 320 315 L 319 315 Z M 303 346 L 299 347 Q 298 351 305 349 L 303 346 Z " /><path fill="rgb(203,192,207)" stroke="rgb(203,192,207)" stroke-width="1" opacity="0.996078431372549" d="M 352.5 237 L 354 237.5 L 351.5 239 L 352.5 237 Z " /><path fill="rgb(203,192,207)" stroke="rgb(203,192,207)" stroke-width="1" opacity="0.996078431372549" d="M 195.5 246 L 200 246.5 L 195.5 247 L 195.5 246 Z " /><path fill="rgb(203,192,207)" stroke="rgb(203,192,207)" stroke-width="1" opacity="0.996078431372549" d="M 385.5 347 L 387 347.5 L 384.5 349 L 385.5 347 Z " /><path fill="rgb(203,192,207)" stroke="rgb(203,192,207)" stroke-width="1" opacity="0.996078431372549" d="M 380.5 349 L 383 349.5 L 378.5 351 L 378.5 350 L 380.5 349 Z " /><path fill="rgb(203,192,207)" stroke="rgb(203,192,207)" stroke-width="1" opacity="0.996078431372549" d="M 361.5 354 L 364 354.5 L 361.5 355 L 361.5 354 Z " /><path fill="rgb(203,192,207)" stroke="rgb(203,192,207)" stroke-width="1" opacity="0.996078431372549" d="M 325.5 355 L 334 355.5 L 325.5 356 L 325.5 355 Z " /><path fill="rgb(203,192,207)" stroke="rgb(203,192,207)" stroke-width="1" opacity="0.996078431372549" d="M 353.5 355 L 359 355.5 L 353.5 356 L 353.5 355 Z " /><path fill="rgb(203,192,207)" stroke="rgb(203,192,207)" stroke-width="1" opacity="0.996078431372549" d="M 336.5 356 L 344 356.5 L 336.5 357 L 336.5 356 Z " /><path fill="rgb(160,208,222)" stroke="rgb(160,208,222)" stroke-width="1" opacity="0.996078431372549" d="M 375.5 149 L 376.5 151 Q 377.8 148.8 379 151.5 L 378 154.5 L 382 157 Q 383.1 159.7 380.5 159 L 379 158.5 Q 379.8 160.8 377.5 160 L 378 158.5 L 378 155 Q 375.3 156.1 376 153.5 Q 378.5 152 375 150.5 L 375.5 149 Z " /><path fill="rgb(160,208,222)" stroke="rgb(160,208,222)" stroke-width="1" opacity="0.996078431372549" d="M 382 162 Q 385 160.8 384 164.5 L 382 163.5 L 382 162 Z " /><path fill="rgb(160,208,222)" stroke="rgb(160,208,222)" stroke-width="1" opacity="0.996078431372549" d="M 385.5 165 Q 388.5 165.5 388 169.5 L 387 171.5 L 390 174.5 L 388.5 176 L 386.5 176 Q 384.3 176.8 385 174.5 L 383 167.5 L 385 168.5 L 385 174 L 387.5 174 L 386 171.5 L 385.5 165 Z " /><path fill="rgb(160,208,222)" stroke="rgb(160,208,222)" stroke-width="1" opacity="0.996078431372549" d="M 380.5 169 L 381 171.5 L 380 171.5 L 380.5 169 Z " /><path fill="rgb(160,208,222)" stroke="rgb(160,208,222)" stroke-width="1" opacity="0.996078431372549" d="M 389.5 169 L 391 171.5 L 389 170.5 L 389.5 169 Z " /><path fill="rgb(160,208,222)" stroke="rgb(160,208,222)" stroke-width="1" opacity="0.996078431372549" d="M 381.5 174 L 382 188 Q 378.7 189.3 380 184.5 L 381 183.5 L 381.5 174 Z " /><path fill="rgb(160,208,222)" stroke="rgb(160,208,222)" stroke-width="1" opacity="0.996078431372549" d="M 392.5 177 L 395 179.5 Q 393.5 185 396 186.5 Q 393.3 187.8 393.5 192 L 391 191.5 L 394 179 Q 390.8 180 392.5 177 Z " /><path fill="rgb(160,208,222)" stroke="rgb(160,208,222)" stroke-width="1" opacity="0.996078431372549" d="M 384 184 L 386 184.5 L 384 185.5 L 384 184 Z " /><path fill="rgb(160,208,222)" stroke="rgb(160,208,222)" stroke-width="1" opacity="0.996078431372549" d="M 384 188 Q 387.7 186.5 387 189.5 L 387 191.5 L 388 193.5 L 387 196 L 384 194.5 Q 382.9 191.2 385.5 192 L 384 189.5 L 384 188 Z " /><path fill="rgb(160,208,222)" stroke="rgb(160,208,222)" stroke-width="1" opacity="0.996078431372549" d="M 394.5 193 L 395 197.5 L 393 196.5 L 394.5 193 Z " /><path fill="rgb(160,208,222)" stroke="rgb(160,208,222)" stroke-width="1" opacity="0.996078431372549" d="M 382.5 197 L 384 200 Q 380.5 201.1 382.5 197 Z " /><path fill="rgb(160,208,222)" stroke="rgb(160,208,222)" stroke-width="1" opacity="0.996078431372549" d="M 388.5 201 L 389 207 Q 385.3 208.5 386 205.5 L 388.5 201 Z " /><path fill="rgb(160,208,222)" stroke="rgb(160,208,222)" stroke-width="1" opacity="0.996078431372549" d="M 395.5 201 L 397.5 204 L 418 222.5 L 425 234 Q 427.7 232.9 427 235.5 L 435 252.5 L 438 267.5 L 438 269.5 L 437 276.5 L 438 278.5 L 437 281.5 L 436 287.5 L 436 289.5 L 432 304.5 L 425 317 Q 422.3 315.9 423 318.5 L 420 320.5 L 420 322.5 L 418.5 325 L 417 324.5 L 416 327.5 L 407.5 336 L 397.5 342 L 395 342 Q 396.3 345 392.5 344 L 387.5 348 L 385.5 347 L 383.5 349 L 380.5 349 L 367.5 354 L 348.5 356 L 347.5 355 L 337.5 355 L 334.5 356 L 334.5 355 L 336.5 354 L 348.5 354 L 350 352.5 L 346.5 352 L 344.5 352 L 341.5 353 L 337.5 352 L 331.5 355 L 328.5 355 L 327.5 354 Q 318.9 354.8 314 353 Q 314.8 349.9 312 350.5 L 312 344.5 L 310 344.5 L 310 336.5 Q 313.3 337.5 312 331.5 Q 315 330.5 314 325.5 L 317.5 321 L 320 320.5 L 316 318.5 Q 314.9 315.2 317.5 316 L 320 315 L 320.5 320 L 322 318.5 L 322 312 Q 326.5 313.8 325 308.5 L 326 302 Q 329.5 303.1 328 295.5 L 326 295.5 L 326 292 Q 329.3 293.1 328 289 Q 325.3 287.9 326 290.5 L 324 291.5 L 323.5 290 L 321 291.5 Q 319.9 288.2 322.5 289 L 325 288.5 L 326 286.5 L 324 285.5 L 330 281 L 337 271.5 L 336 269.5 L 337 266.5 L 340 262.5 L 340 260 L 336 258.5 L 337.5 258 L 339.5 259 L 342.5 258 L 344 258.5 L 344 256 Q 338.8 257.7 340 254 L 342 254 L 342 250 Q 345 251.3 344 247.5 L 352 244.5 L 348 244 Q 346.3 239.5 351.5 241 L 351.5 240 L 347 238.5 L 365 232 L 368.5 227 L 371.5 228 L 375 225.5 Q 374.3 223.3 376.5 224 L 387 215.5 Q 386.3 213.3 388.5 214 L 394 207.5 L 394 205 Q 396.7 206.1 396 203.5 L 395.5 201 Z M 339 269 L 337 271 L 339 271 L 339 269 Z M 380 344 L 379 346 L 382 345 L 380 344 Z M 386 344 L 384 346 L 386 346 L 386 344 Z M 352 352 L 352 354 L 361 354 L 352 352 Z " /><path fill="rgb(160,208,222)" stroke="rgb(160,208,222)" stroke-width="1" opacity="0.996078431372549" d="M 332.5 274 L 331.5 276 L 332.5 274 Z " /><path fill="rgb(160,208,222)" stroke="rgb(160,208,222)" stroke-width="1" opacity="0.996078431372549" d="M 319.5 293 L 320 296 Q 317.3 297.1 318 294.5 L 319.5 293 Z " /><path fill="rgb(160,208,222)" stroke="rgb(160,208,222)" stroke-width="1" opacity="0.996078431372549" d="M 302.5 346 L 304.5 349 Q 297.6 351 299 347 L 302.5 346 Z " /><path fill="rgb(238,177,185)" stroke="rgb(238,177,185)" stroke-width="1" opacity="0.996078431372549" d="M 238.5 44 L 241.5 45 L 243 44.5 L 245.5 48 L 249 50.5 L 250 57.5 L 246 64 L 242.5 66 L 236.5 67 L 234 66 L 234 63.5 L 231 60.5 L 228.5 54 L 227 54.5 L 232.5 48 L 238.5 44 Z M 239 51 L 236 54 Q 235 58 239 59 L 242 58 Q 244 57 243 53 Q 242 50 239 51 Z " /><path fill="rgb(238,177,185)" stroke="rgb(238,177,185)" stroke-width="1" opacity="0.996078431372549" d="M 268.5 84 L 267.5 86 L 268.5 84 Z " /><path fill="rgb(238,177,185)" stroke="rgb(238,177,185)" stroke-width="1" opacity="0.996078431372549" d="M 119.5 157 L 119 158.5 L 118.5 160 L 118 158.5 L 119.5 157 Z " /><path fill="rgb(238,177,185)" stroke="rgb(238,177,185)" stroke-width="1" opacity="0.996078431372549" d="M 110 165 Q 113 164 112 167 Q 109 168 110 165 Z " /><path fill="rgb(238,177,185)" stroke="rgb(238,177,185)" stroke-width="1" opacity="0.996078431372549" d="M 110 168 Q 114.1 166.3 113 170.5 L 111 179.5 L 112 183.5 L 112 185.5 L 111 192 L 108 192 L 108 198 L 110.5 199 L 112 196 L 118 199.5 L 115.5 200 L 112 198 Q 113.3 201.3 108.5 200 L 108.5 201 L 112 202 L 112.5 204 L 115 203 Q 113.9 200.3 116.5 201 L 120 202 L 122 208 Q 119 207 120 210 L 117 210 L 117 212 L 120.5 211 L 122 214 L 119.5 215 L 117.5 214 L 116 217 L 114 217.5 L 116.5 219 L 119 218 L 118 220.5 L 121.5 223 Q 124.5 221.5 121.5 220 L 120 219.5 Q 122.5 216.9 128 218 L 127 224.5 L 128.5 228 L 131.5 226 L 136 228.5 L 135.5 230 Q 140.3 229.3 142 231.5 L 139 232.5 L 158.5 240 L 176.5 244 L 188.5 245 L 195.5 247 L 205.5 247 L 206.5 248 L 221.5 248 L 228.5 250 L 244.5 250 L 248 252.5 Q 247.3 255.1 250 254 L 250 256 L 248 256 L 248 260 L 246 260 L 244 264 L 241.5 264 L 238 266.5 Q 238.6 269.3 232.5 268 L 229 270.5 L 232 271.5 L 230 272 Q 231 275 228 274 L 228 277 L 224.5 277 L 222 276 L 222 281.5 L 220.5 282 L 218.5 283 L 216.5 280 L 216 285 L 214 285 L 214 288 Q 210.2 286.5 211 289.5 L 208 291 L 208 296 L 210.5 296 L 210.5 298 Q 214.9 296.5 214 299.5 Q 218.4 303.6 219 310 L 223.5 309 L 224 311 L 222 311.5 L 228 312 L 228 314 L 230 314 L 230 316 Q 232.7 314.9 232 317.5 L 236 320 Q 233.7 326.4 241.5 324 L 243 326.5 Q 240.8 327.8 243.5 329 Q 246.1 328.3 245 331 L 248.5 331 L 257 336.5 L 255.5 336 L 248.5 334 L 238.5 339 L 213.5 348 L 175.5 356 L 158.5 356 L 157.5 357 L 156.5 356 L 143.5 356 L 142.5 355 L 128.5 354 L 126.5 352 L 118.5 351 L 110.5 347 L 109 347.5 L 107.5 345 L 101.5 343 L 90 336 Q 91.1 333.3 88.5 334 Q 74.1 322.4 66 304.5 L 61 287.5 L 61 272.5 L 60 269.5 L 63 252.5 L 72 233.5 Q 81.3 219.8 93.5 209 L 103 203 Q 100.6 199.1 102 189.5 L 104 184.5 L 103 182.5 L 105.5 181 L 107.5 182 L 110 181 L 109 178.5 L 110 176 Q 106.3 177.5 107 174.5 L 108.5 171 L 110.5 174 L 111 170.5 L 110 168 Z M 104 205 L 105 208 Q 107 207 106 211 L 109 213 Q 108 210 111 211 L 110 214 L 113 215 Q 115 216 114 213 Q 110 211 113 210 Q 112 207 115 208 L 115 207 Q 111 206 112 209 L 111 209 Q 112 206 110 207 L 108 207 L 104 205 Z M 119 205 L 120 207 Q 121 204 119 205 Z " /><path fill="rgb(238,177,185)" stroke="rgb(238,177,185)" stroke-width="1" opacity="0.996078431372549" d="M 105 177 L 108 177.5 L 104.5 180 L 105 178.5 L 105 177 Z " /><path fill="rgb(238,177,185)" stroke="rgb(238,177,185)" stroke-width="1" opacity="0.996078431372549" d="M 112 190 L 115 190 Q 113.9 192.7 116.5 192 L 116.5 193 L 112 192 L 112 190 Z " /><path fill="rgb(238,177,185)" stroke="rgb(238,177,185)" stroke-width="1" opacity="0.996078431372549" d="M 127.5 212 L 128 214 L 126 213.5 L 127.5 212 Z " /><path fill="rgb(238,177,185)" stroke="rgb(238,177,185)" stroke-width="1" opacity="0.996078431372549" d="M 132.5 222 Q 137.3 220.7 136 224 L 131 223.5 L 132.5 222 Z " /><path fill="rgb(238,177,185)" stroke="rgb(238,177,185)" stroke-width="1" opacity="0.996078431372549" d="M 261.5 338 L 265 339.5 L 263.5 340 L 261.5 338 Z " /><path fill="rgb(238,177,185)" stroke="rgb(238,177,185)" stroke-width="1" opacity="0.996078431372549" d="M 269.5 341 L 272 342.5 L 270.5 342 L 269.5 341 Z " /><path fill="rgb(238,177,185)" stroke="rgb(238,177,185)" stroke-width="1" opacity="0.996078431372549" d="M 276.5 344 L 279 345.5 L 277.5 345 L 276.5 344 Z " /><path fill="rgb(238,177,185)" stroke="rgb(238,177,185)" stroke-width="1" opacity="0.996078431372549" d="M 121.5 382 L 123 386 L 126.5 385 L 146.5 391 L 160.5 392 L 162.5 391 L 164.5 391 L 168 392.5 L 171 408.5 L 173 411.5 L 173 415.5 L 172 415.5 Q 173.1 412.2 170.5 413 L 168 408.5 L 169 406 L 166 407.5 L 164 413.5 L 161.5 416 Q 154.7 415.1 152 417 Q 153.1 419.7 150.5 419 L 143.5 422 Q 142 418.5 140.5 421 L 138 421.5 L 139 425 Q 136.3 423.9 137 426.5 L 136 426.5 L 135 422.5 L 137 422.5 L 136 418 L 141 417 Q 142.1 414.3 139.5 415 L 133.5 411 Q 131.8 414.7 130 411.5 Q 130.9 404.6 127.5 402 L 126 402.5 L 128 405.5 L 126.5 410 L 125.5 408 L 124.5 410 L 124 407.5 L 124.5 406 Q 121.1 406.9 123 401.5 L 121 396.5 L 121 394.5 L 118 384.5 L 121 384 L 121.5 382 Z M 133 398 L 134 400 Q 136 399 135 403 L 136 403 Q 138 396 133 398 Z M 138 404 L 138 406 L 141 406 L 138 404 Z " /><path fill="rgb(238,177,185)" stroke="rgb(238,177,185)" stroke-width="1" opacity="0.996078431372549" d="M 128 414 Q 131 413 130 416 L 132.5 416 L 135 417 Q 136.3 421.1 133 420 L 131.5 417 L 128 416 L 128 414 Z " /><path fill="rgb(238,177,185)" stroke="rgb(238,177,185)" stroke-width="1" opacity="0.996078431372549" d="M 132.5 422 L 133 424 Q 135.7 422.9 135 425.5 L 132 423.5 L 132.5 422 Z " /><path fill="rgb(238,177,185)" stroke="rgb(238,177,185)" stroke-width="1" opacity="0.996078431372549" d="M 131.5 429 L 132.5 431 L 131.5 429 Z " /><path fill="rgb(238,177,185)" stroke="rgb(238,177,185)" stroke-width="1" opacity="0.996078431372549" d="M 134.5 431 L 134.5 434 Q 131.5 432.5 134.5 431 Z " /><path fill="rgb(238,177,185)" stroke="rgb(238,177,185)" stroke-width="1" opacity="0.996078431372549" d="M 137.5 432 L 136.5 434 L 137.5 432 Z " /><path fill="rgb(238,177,185)" stroke="rgb(238,177,185)" stroke-width="1" opacity="0.996078431372549" d="M 136.5 436 L 138.5 439 L 136.5 436 Z " /><path fill="rgb(238,177,185)" stroke="rgb(238,177,185)" stroke-width="1" opacity="0.996078431372549" d="M 359.5 440 L 357.5 443 L 359.5 440 Z " /><path fill="rgb(238,177,185)" stroke="rgb(238,177,185)" stroke-width="1" opacity="0.996078431372549" d="M 144.5 444 L 145.5 446 L 144.5 444 Z " /><path fill="rgb(238,177,185)" stroke="rgb(238,177,185)" stroke-width="1" opacity="0.996078431372549" d="M 176.5 457 L 188 457.5 L 176.5 458 L 176.5 457 Z " /><path fill="rgb(220,173,135)" stroke="rgb(220,173,135)" stroke-width="1" opacity="0.996078431372549" d="M 245.5 42 L 255.5 42 L 257 43.5 L 256 46.5 L 258 48.5 L 258 57.5 L 253 69 L 245.5 74 L 237.5 76 L 235.5 76 L 229 74 L 228.5 76 L 226.5 71 Q 225.3 73.3 224 70.5 Q 223 59 228.5 54 L 231 60.5 L 234 63.5 L 234 66 L 237.5 67 L 246 64 L 250 57.5 L 250 52.5 L 246.5 48 L 243 45.5 L 242.5 44 L 238.5 46 L 239.5 44 L 245.5 42 Z " /><path fill="rgb(220,173,135)" stroke="rgb(220,173,135)" stroke-width="1" opacity="0.996078431372549" d="M 264.5 46 L 265.5 48 L 264.5 46 Z " /><path fill="rgb(220,173,135)" stroke="rgb(220,173,135)" stroke-width="1" opacity="0.996078431372549" d="M 269.5 51 L 270.5 53 L 269.5 51 Z " /><path fill="rgb(220,173,135)" stroke="rgb(220,173,135)" stroke-width="1" opacity="0.996078431372549" d="M 225 73 Q 228.7 71.7 227 77.5 L 228 79.5 L 227 79.5 L 225 73 Z " /><path fill="rgb(220,173,135)" stroke="rgb(220,173,135)" stroke-width="1" opacity="0.996078431372549" d="M 229.5 82 L 230.5 84 L 229.5 82 Z " /><path fill="rgb(220,173,135)" stroke="rgb(220,173,135)" stroke-width="1" opacity="0.996078431372549" d="M 232.5 85 L 234.5 88 L 232.5 85 Z " /><path fill="rgb(220,173,135)" stroke="rgb(220,173,135)" stroke-width="1" opacity="0.996078431372549" d="M 264.5 87 L 263.5 89 L 264.5 87 Z " /><path fill="rgb(220,173,135)" stroke="rgb(220,173,135)" stroke-width="1" opacity="0.996078431372549" d="M 248.5 334 L 251 334.5 L 248.5 335 L 248.5 334 Z " /><path fill="rgb(220,173,135)" stroke="rgb(220,173,135)" stroke-width="1" opacity="0.996078431372549" d="M 252.5 335 L 258 337.5 L 256.5 338 L 252.5 336 L 252.5 335 Z " /><path fill="rgb(220,173,135)" stroke="rgb(220,173,135)" stroke-width="1" opacity="0.996078431372549" d="M 241.5 337 L 240.5 339 L 239 338.5 L 241.5 337 Z " /><path fill="rgb(220,173,135)" stroke="rgb(220,173,135)" stroke-width="1" opacity="0.996078431372549" d="M 222.5 344 L 224 344.5 L 214.5 348 L 214.5 347 L 222.5 344 Z " /><path fill="rgb(220,173,135)" stroke="rgb(220,173,135)" stroke-width="1" opacity="0.996078431372549" d="M 110.5 347 L 118.5 351 L 126.5 352 L 128.5 354 L 142.5 355 L 143.5 356 L 156.5 356 L 157.5 357 L 158.5 356 L 175.5 356 L 208.5 349 L 208.5 350 L 177.5 357 L 168.5 357 L 165 359.5 L 167.5 360 L 169.5 360 L 174.5 361 L 181 360 Q 179.9 362.7 182.5 362 L 184 362.5 Q 183.2 359.9 186.5 361 L 190.5 360 L 196.5 363 L 198.5 360 L 200.5 360 Q 204.3 360.8 205 358.5 Q 202.8 357.3 205.5 356 Q 209.3 354.8 208 358.5 L 209.5 358 L 212 358 Q 210.9 355.3 213.5 356 L 233.5 366 L 238.5 370 L 245 371 L 245.5 373 L 253.5 373 L 263.5 368 L 264 369.5 Q 261.8 370.8 264.5 372 L 268.5 371 Q 273.5 373.5 268.5 376 L 264.5 376 Q 265.5 373 260.5 374 L 260.5 375 L 262 375.5 L 260 376.5 L 286.5 386 L 319 392 L 317.5 395 Q 313.8 393.8 315 397.5 L 316 402 Q 313.3 400.9 314 403.5 L 315 406 Q 310.9 404.3 312 408.5 L 308 411.5 Q 309.3 406.7 306 408 Q 307 411 304 410 L 303.5 407 L 303 415.5 L 304 415.5 L 304.5 413 L 307 416.5 Q 305.3 420.8 303.5 418 L 298.5 420 L 294 418 Q 293 421 296 420 L 296 422.5 L 296.5 424 L 293.5 423 L 288 425 Q 289.3 428.3 284.5 427 Q 281 428.3 282 433 L 280 433 Q 281.1 430.3 278.5 431 L 278.5 433 L 271.5 434 L 270 435.5 L 268.5 438 L 264.5 435 L 262.5 440 L 256 442 L 256 445 L 248.5 445 L 243.5 446 L 240 444 Q 241.1 447.3 237 446 L 237 450.5 L 235 450.5 Q 235.8 452.8 233.5 452 L 231.5 452 L 224.5 453 L 222.5 452 L 220.5 453 L 218.5 452 L 216 453.5 L 215.5 452 L 212 454.5 L 212.5 456 L 210 455.5 Q 210.8 453.3 208.5 454 L 205 453 L 204.5 456 L 202.5 456 L 197.5 455 L 192 456 L 191.5 453 L 190.5 456 L 188.5 453 L 188 455.5 L 189.5 457 L 310 457.5 L 188.5 458 L 187.5 457 L 172.5 457 L 164.5 455 Q 151.7 450.9 143 444 Q 144.1 441.3 141.5 442 L 131 427.5 L 131.5 426 L 129 424.5 Q 125.4 418.1 125 408.5 L 126 408.5 L 126.5 410 L 128 404.5 L 126.5 402 L 129 403.5 L 130 411.5 L 131.5 413 L 134.5 411 L 141 415 Q 142.3 418 138.5 417 L 136 418 L 137 422.5 L 136 426.5 L 137 426.5 Q 136.3 423.9 139 425 L 139 422.5 L 138.5 421 L 141.5 420 L 145.5 422 L 152 419 Q 150.9 416.3 153.5 417 Q 155.3 414.3 161.5 416 L 164 413.5 L 167.5 406 Q 169.8 405.3 169 407.5 L 168 409.5 L 170.5 413 Q 173.1 412.2 172 415.5 L 173 415.5 L 173 411.5 L 171 408.5 L 168 392.5 L 166.5 391 L 163.5 392 L 161.5 391 Q 160.3 393.3 155.5 392 L 133.5 388 L 125.5 385 L 123 386 L 121.5 382 L 121 384 Q 116.1 385.8 118 379.5 L 112 359.5 L 110.5 347 Z M 160 358 L 161 360 L 163 359 L 160 358 Z M 313 397 L 312 400 L 313 400 L 313 397 Z M 128 414 Q 127 417 130 416 Q 131 413 128 414 Z M 131 416 L 132 417 L 133 420 Q 136 421 135 417 L 131 416 Z M 134 424 L 135 426 Q 136 423 134 424 Z M 254 440 L 256 442 Q 257 439 254 440 Z M 246 442 Q 245 445 248 444 Q 249 441 246 442 Z M 232 448 Q 229 450 232 451 L 232 449 L 234 449 L 232 448 Z " /><path fill="rgb(220,173,135)" stroke="rgb(220,173,135)" stroke-width="1" opacity="0.996078431372549" d="M 210.5 348 L 213 348.5 L 210.5 349 L 210.5 348 Z " /><path fill="rgb(220,173,135)" stroke="rgb(220,173,135)" stroke-width="1" opacity="0.996078431372549" d="M 289.5 349 L 292 349.5 L 289.5 350 L 289.5 349 Z " /><path fill="rgb(220,173,135)" stroke="rgb(220,173,135)" stroke-width="1" opacity="0.996078431372549" d="M 293.5 350 L 296 350.5 L 293.5 351 L 293.5 350 Z " /><path fill="rgb(220,173,135)" stroke="rgb(220,173,135)" stroke-width="1" opacity="0.996078431372549" d="M 297.5 351 L 300 351.5 L 297.5 352 L 297.5 351 Z " /><path fill="rgb(220,173,135)" stroke="rgb(220,173,135)" stroke-width="1" opacity="0.996078431372549" d="M 302.5 352 L 305 352.5 L 302.5 353 L 302.5 352 Z " /><path fill="rgb(220,173,135)" stroke="rgb(220,173,135)" stroke-width="1" opacity="0.996078431372549" d="M 306.5 353 L 310 353.5 L 306.5 354 L 306.5 353 Z " /><path fill="rgb(220,173,135)" stroke="rgb(220,173,135)" stroke-width="1" opacity="0.996078431372549" d="M 313.5 354 L 316 354.5 L 313.5 355 L 313.5 354 Z " /><path fill="rgb(220,173,135)" stroke="rgb(220,173,135)" stroke-width="1" opacity="0.996078431372549" d="M 364.5 354 L 367 354.5 L 364.5 355 L 364.5 354 Z " /><path fill="rgb(220,173,135)" stroke="rgb(220,173,135)" stroke-width="1" opacity="0.996078431372549" d="M 319.5 355 L 323 355.5 L 319.5 356 L 319.5 355 Z " /><path fill="rgb(220,173,135)" stroke="rgb(220,173,135)" stroke-width="1" opacity="0.996078431372549" d="M 359.5 355 L 362 355.5 L 359.5 356 L 359.5 355 Z " /><path fill="rgb(220,173,135)" stroke="rgb(220,173,135)" stroke-width="1" opacity="0.996078431372549" d="M 328.5 356 L 336 356.5 L 328.5 357 L 328.5 356 Z " /><path fill="rgb(220,173,135)" stroke="rgb(220,173,135)" stroke-width="1" opacity="0.996078431372549" d="M 344.5 356 L 352 356.5 L 344.5 357 L 344.5 356 Z " /><path fill="rgb(220,173,135)" stroke="rgb(220,173,135)" stroke-width="1" opacity="0.996078431372549" d="M 194.5 357 L 198 357.5 L 194.5 358 L 194.5 357 Z " /><path fill="rgb(220,173,135)" stroke="rgb(220,173,135)" stroke-width="1" opacity="0.996078431372549" d="M 191.5 358 L 197 360.5 L 195.5 361 Q 191.5 360.5 191.5 358 Z " /><path fill="rgb(220,173,135)" stroke="rgb(220,173,135)" stroke-width="1" opacity="0.996078431372549" d="M 267.5 367 L 272 368.5 L 267.5 370 Q 264.5 368.5 267.5 367 Z " /><path fill="rgb(220,173,135)" stroke="rgb(220,173,135)" stroke-width="1" opacity="0.996078431372549" d="M 272.5 376 L 272 377.5 L 271.5 379 L 270.5 377 L 272.5 376 Z " /><path fill="rgb(220,173,135)" stroke="rgb(220,173,135)" stroke-width="1" opacity="0.996078431372549" d="M 320 392 Q 324.1 390.3 323 394.5 Q 321.5 397.5 320 394.5 L 320 392 Z " /><path fill="rgb(220,173,135)" stroke="rgb(220,173,135)" stroke-width="1" opacity="0.996078431372549" d="M 324.5 392 Q 330.2 390.2 328 396.5 L 325 398 L 324.5 392 Z " /><path fill="rgb(220,173,135)" stroke="rgb(220,173,135)" stroke-width="1" opacity="0.996078431372549" d="M 132.5 398 Q 138.2 396.2 136 402.5 L 135 402.5 Q 136.1 399.2 133.5 400 L 132.5 398 Z " /><path fill="rgb(220,173,135)" stroke="rgb(220,173,135)" stroke-width="1" opacity="0.996078431372549" d="M 139.5 399 L 142 400.5 L 140.5 400 L 139.5 399 Z " /><path fill="rgb(220,173,135)" stroke="rgb(220,173,135)" stroke-width="1" opacity="0.996078431372549" d="M 138 404 L 141 405.5 L 138 406 L 138 404 Z " /><path fill="rgb(220,173,135)" stroke="rgb(220,173,135)" stroke-width="1" opacity="0.996078431372549" d="M 323.5 406 L 322.5 408 L 323.5 406 Z " /><path fill="rgb(220,173,135)" stroke="rgb(220,173,135)" stroke-width="1" opacity="0.996078431372549" d="M 304.5 422 L 305.5 424 Q 302.7 424.7 304.5 422 Z " /><path fill="rgb(220,173,135)" stroke="rgb(220,173,135)" stroke-width="1" opacity="0.996078431372549" d="M 366.5 430 L 366 431.5 L 365.5 433 L 365 431.5 L 366.5 430 Z " /><path fill="rgb(220,173,135)" stroke="rgb(220,173,135)" stroke-width="1" opacity="0.996078431372549" d="M 363.5 435 L 360.5 439 L 363.5 435 Z " /><path fill="rgb(220,173,135)" stroke="rgb(220,173,135)" stroke-width="1" opacity="0.996078431372549" d="M 354.5 444 L 353.5 446 L 354.5 444 Z " /><path fill="rgb(220,173,135)" stroke="rgb(220,173,135)" stroke-width="1" opacity="0.996078431372549" d="M 238 450 L 243 450.5 L 238 452 L 238 450 Z " /><path fill="rgb(220,173,135)" stroke="rgb(220,173,135)" stroke-width="1" opacity="0.996078431372549" d="M 316.5 457 L 323 457.5 L 316.5 458 L 316.5 457 Z " /><path fill="rgb(201,143,110)" stroke="rgb(201,143,110)" stroke-width="1" opacity="0.996078431372549" d="M 254.5 43 L 256.5 44 L 258.5 44 L 269 50.5 L 275 62.5 L 275 71.5 Q 272.6 81.6 265.5 87 Q 259 94 243.5 92 L 231 85 L 228 80.5 L 227 73 L 225 72.5 L 225 70.5 L 225.5 69 L 228.5 76 L 229 74 L 235.5 76 L 237.5 76 L 245.5 74 L 253 69 L 258 57.5 L 258 48.5 L 255 47.5 L 255.5 44 L 254.5 43 Z " /><path fill="rgb(201,143,110)" stroke="rgb(201,143,110)" stroke-width="1" opacity="0.996078431372549" d="M 247.5 335 L 251.5 335 L 256.5 338 L 289.5 350 L 306.5 354 L 327.5 356 L 328.5 357 L 351.5 357 L 352.5 356 L 366.5 355 L 388.5 348 L 388 349.5 L 371 421.5 L 365 433.5 L 360 440 Q 357.3 438.9 358 441.5 Q 350.8 448.8 340.5 453 L 327.5 457 L 310.5 458 L 309.5 457 L 189.5 457 L 188 455.5 L 188.5 453 L 190.5 456 L 191.5 453 L 192 456 L 199.5 455 L 202.5 456 L 205 455.5 Q 203.8 451.8 207.5 453 L 210 454 L 210.5 456 L 215.5 452 L 216.5 454 L 219.5 452 L 221.5 453 L 223.5 452 L 228.5 453 L 231.5 452 L 233.5 452 Q 235.8 452.8 235 450.5 L 237 450.5 L 237 446 L 240 446 Q 238.9 443.3 241.5 444 Q 242.5 447 247.5 446 L 248.5 445 L 256 445 Q 257.5 441.3 254.5 442 L 253.5 440 L 256 440 Q 254.9 442.7 257.5 442 L 264 438.5 L 264.5 435 L 268.5 438 L 271.5 434 Q 276.9 434.9 279 432.5 L 278.5 431 Q 281.1 430.3 280 433 L 282 433 Q 281 428.3 284.5 427 L 288 427 Q 286.9 424.3 289.5 425 L 296 423 L 296 420 Q 293 421 294 418 L 299.5 420 L 303.5 418 Q 305.3 420.8 307 416.5 L 304.5 413 L 303.5 416 L 303 407.5 L 304 407.5 Q 303 411.3 306 410 Q 305 407 308 408 L 308.5 412 Q 312.8 410.7 312 406 Q 315.7 407.5 315 404.5 L 314 402 Q 317.3 403.3 316 398.5 L 315 395 L 319 393.5 Q 319.8 391.3 317.5 392 L 286.5 386 L 260 376.5 L 262 375.5 L 259 373.5 L 260.5 374 Q 265.5 373 264.5 376 L 268.5 376 Q 273.5 373.5 268.5 371 L 264.5 372 Q 261.8 370.8 264 369.5 L 263.5 368 L 253.5 373 L 245 373 Q 246.3 370 242.5 371 L 221.5 361 L 216.5 357 L 212 356 Q 213.3 359 209.5 358 L 208 358.5 Q 209.3 354.8 205.5 356 L 203.5 360 L 199.5 361 L 198 360.5 L 196.5 363 L 190.5 360 L 187.5 360 L 184 361 L 183.5 363 L 181 362 Q 182.4 358 175.5 360 L 172.5 361 L 168.5 359 L 165.5 360 L 166.5 358 Q 170 355.5 177.5 357 L 205.5 351 L 219.5 347 L 247.5 335 Z M 195 357 L 195 358 L 198 358 L 195 357 Z M 193 359 L 193 360 L 196 361 L 197 361 Q 196 358 193 359 Z M 268 367 Q 265 369 268 370 L 272 369 L 268 367 Z M 271 377 L 272 379 Q 273 376 271 377 Z M 320 392 L 320 395 Q 322 398 323 395 Q 324 390 320 392 Z M 325 392 L 325 398 L 328 397 Q 330 390 325 392 Z M 305 422 Q 303 425 306 424 L 305 422 Z M 238 450 L 238 452 L 243 451 L 238 450 Z " /><path fill="rgb(201,143,110)" stroke="rgb(201,143,110)" stroke-width="1" opacity="0.996078431372549" d="M 160 358 L 163 358.5 L 160.5 360 L 160 358 Z " /><path fill="rgb(201,143,110)" stroke="rgb(201,143,110)" stroke-width="1" opacity="0.996078431372549" d="M 312.5 397 L 313 399.5 L 312 399.5 L 312.5 397 Z " /><path fill="rgb(201,143,110)" stroke="rgb(201,143,110)" stroke-width="1" opacity="0.996078431372549" d="M 246 442 Q 249 441 248 444 Q 245 445 246 442 Z " /><path fill="rgb(201,143,110)" stroke="rgb(201,143,110)" stroke-width="1" opacity="0.996078431372549" d="M 231.5 448 L 234 448.5 L 232 449 L 231.5 451 L 229 450.5 L 231.5 448 Z " /></svg>